<svg id="svg" version="1.1" xmlns="http://www.w3.org/2000/svg" xmlns:xlink="http://www.w3.org/1999/xlink" width="400" height="398"
    viewBox="0, 0, 400,398">
    <g id="svgg">
        <path id="path0" fill="#050505" stroke="none"
            d="M120.153 14.375 C 119.631 14.530,117.941 15.025,116.397 15.475 C 111.910 16.783,107.361 19.982,104.055 24.155 L 101.311 27.616 100.611 31.818 C 99.475 38.631,100.101 43.646,102.537 47.247 C 105.165 51.131,105.390 51.327,106.092 50.348 C 112.526 41.377,121.371 32.587,131.841 24.761 C 134.851 22.510,137.311 20.541,137.307 20.385 C 137.260 18.188,123.523 13.375,120.153 14.375 M281.299 25.658 C 277.334 26.107,269.366 29.896,270.339 30.869 C 270.430 30.961,272.821 32.527,275.651 34.349 C 281.229 37.940,288.984 43.815,291.537 46.383 C 292.416 47.266,295.069 50.018,297.434 52.498 C 299.799 54.977,301.855 56.885,302.003 56.737 C 303.476 55.264,304.666 50.156,304.605 45.572 L 304.541 40.796 302.533 37.214 C 301.038 34.548,299.839 33.021,297.845 31.244 C 293.762 27.604,293.629 27.523,290.082 26.492 C 288.258 25.963,286.498 25.449,286.169 25.351 C 285.841 25.253,283.649 25.391,281.299 25.658 M32.389 91.911 C 24.037 94.264,16.514 101.656,14.412 109.572 L 13.469 113.123 14.341 116.363 C 15.137 119.323,16.112 121.381,22.194 132.935 C 24.173 136.694,27.500 141.368,34.763 150.588 C 37.927 154.604,50.164 167.340,52.338 168.880 C 52.995 169.345,55.453 171.298,57.801 173.221 C 60.149 175.143,62.165 176.716,62.280 176.716 C 62.396 176.716,62.385 174.433,62.256 171.642 C 61.943 164.872,62.683 144.928,63.440 139.701 C 63.774 137.403,64.333 133.104,64.684 130.149 C 65.035 127.194,65.688 123.075,66.135 120.995 C 67.232 115.894,67.485 112.153,66.841 110.540 C 65.674 107.618,62.619 102.710,60.341 100.100 C 56.352 95.527,55.887 95.148,52.248 93.504 C 50.327 92.636,48.475 91.769,48.130 91.576 C 46.277 90.539,36.519 90.747,32.389 91.911 M48.875 99.266 C 52.039 100.912,52.663 102.834,52.109 109.230 C 51.761 113.243,49.821 122.650,49.217 123.254 C 48.579 123.892,38.801 119.863,34.273 117.097 C 29.129 113.954,27.949 110.013,31.034 106.269 L 32.182 104.876 35.792 104.876 C 37.778 104.876,39.426 104.786,39.454 104.677 C 39.482 104.567,39.546 104.101,39.596 103.641 C 39.997 99.955,45.350 97.431,48.875 99.266 M344.532 179.360 C 344.406 180.205,344.199 183.493,344.070 186.667 C 343.482 201.245,341.800 213.672,338.484 227.942 C 337.806 230.862,337.759 232.040,338.321 232.040 C 338.547 232.040,338.842 232.353,338.977 232.736 C 339.112 233.119,340.067 235.420,341.099 237.848 C 342.131 240.276,343.099 243.142,343.250 244.216 C 345.525 260.402,347.338 264.875,353.208 268.781 C 364.299 276.162,379.402 271.060,383.624 258.507 C 385.244 253.689,385.304 253.168,384.657 249.442 C 384.090 246.172,383.408 244.278,378.677 232.840 C 375.754 225.772,366.594 207.979,363.001 202.388 C 361.031 199.323,358.845 195.920,358.142 194.826 C 357.067 193.151,346.821 180.060,345.259 178.365 C 344.851 177.922,344.720 178.102,344.532 179.360 M293.731 317.610 C 293.184 317.793,291.124 318.426,289.154 319.017 C 279.135 322.023,274.154 323.734,272.267 324.820 C 271.923 325.018,269.524 326.064,266.936 327.144 C 258.644 330.604,247.018 337.575,240.596 342.937 C 237.532 345.495,234.490 348.031,233.837 348.573 L 232.649 349.559 234.696 351.396 C 239.372 355.594,239.821 359.133,236.721 367.363 C 235.214 371.362,236.405 375.065,239.887 377.205 C 246.867 381.496,274.980 381.419,282.189 377.089 C 288.305 373.416,289.277 370.093,290.151 349.851 C 290.736 336.299,291.083 333.996,294.533 320.748 C 295.578 316.739,295.637 316.972,293.731 317.610 M123.383 318.388 C 123.383 318.627,123.986 320.386,124.723 322.297 C 129.434 334.514,130.798 341.485,131.749 358.209 C 132.697 374.878,135.268 377.657,151.045 379.064 C 178.683 381.528,185.764 378.845,187.903 365.101 C 188.846 359.038,189.821 356.550,191.685 355.450 C 192.427 355.012,193.035 354.485,193.035 354.279 C 193.035 353.508,177.053 341.223,173.066 338.928 C 170.805 337.627,167.166 335.500,164.979 334.200 C 162.793 332.901,160.354 331.608,159.559 331.328 C 158.765 331.048,157.778 330.630,157.366 330.400 C 156.954 330.170,155.274 329.413,153.632 328.717 C 151.990 328.022,149.751 327.056,148.657 326.570 C 145.617 325.220,142.645 324.162,138.706 323.027 C 136.736 322.459,133.257 321.456,130.975 320.798 C 128.693 320.140,126.523 319.602,126.153 319.602 C 125.783 319.602,125.009 319.231,124.432 318.777 C 123.855 318.323,123.383 318.148,123.383 318.388" />
        <path id="love" fill="#a22b29" fill-rule="evenodd" stroke="none"
            d="M42.587 99.483 C 41.145 100.251,39.754 102.183,39.596 103.641 C 39.546 104.101,39.482 104.567,39.454 104.677 C 39.426 104.786,37.778 104.876,35.792 104.876 L 32.182 104.876 31.034 106.269 C 27.949 110.013,29.129 113.954,34.273 117.097 C 38.801 119.863,48.579 123.892,49.217 123.254 C 50.551 121.920,52.900 105.737,52.143 103.096 C 51.064 99.337,46.269 97.524,42.587 99.483" />
        <path id="iceborder" fill="#d1d1d1" fill-rule="evenodd" stroke="none"
            d="M117.798 2.917 C 117.682 3.042,115.930 3.356,113.905 3.615 C 111.100 3.975,109.823 4.347,108.544 5.176 C 105.196 7.346,101.770 9.527,101.534 9.638 C 101.402 9.700,100.129 11.094,98.706 12.736 C 97.284 14.377,95.802 16.014,95.414 16.372 C 94.336 17.369,91.101 25.371,90.696 28.041 C 89.425 36.434,90.530 43.553,94.188 50.531 L 96.388 54.726 94.463 57.546 C 92.304 60.708,87.925 66.966,86.864 68.406 C 86.482 68.925,85.442 70.716,84.554 72.386 C 83.665 74.056,82.301 76.587,81.522 78.010 C 80.744 79.433,79.471 81.761,78.695 83.184 C 77.268 85.799,71.244 100.541,71.244 101.416 C 71.244 102.599,70.168 101.720,69.756 100.199 C 69.503 99.269,67.809 96.271,65.992 93.537 L 62.687 88.567 57.969 85.428 C 53.301 82.321,48.624 80.445,42.945 79.401 C 40.824 79.011,31.423 79.912,28.771 80.760 C 27.504 81.164,25.324 81.816,23.926 82.208 C 22.293 82.666,20.791 83.430,19.723 84.346 C 17.679 86.099,13.992 89.208,13.316 89.749 C 12.813 90.152,7.640 97.820,6.870 99.303 C 6.643 99.741,5.799 102.402,4.995 105.215 L 3.533 110.331 3.984 115.762 C 4.233 118.750,4.670 121.731,4.955 122.388 C 5.241 123.045,6.070 125.194,6.797 127.164 C 7.896 130.142,12.048 137.502,17.114 145.454 C 17.443 145.969,18.384 147.558,19.205 148.984 C 20.027 150.410,20.835 151.636,21.002 151.709 C 21.306 151.841,22.178 152.879,29.652 162.000 C 36.425 170.268,49.662 184.105,54.328 187.798 C 56.757 189.720,59.229 191.795,63.353 195.373 C 64.134 196.051,64.565 196.952,64.877 198.557 C 65.116 199.789,65.481 201.602,65.687 202.587 C 65.893 203.572,66.350 205.900,66.701 207.761 C 67.549 212.248,67.588 212.449,68.002 214.527 C 68.376 216.406,72.296 231.832,73.615 236.617 C 74.037 238.149,75.480 242.269,76.820 245.771 C 78.160 249.274,79.910 253.930,80.708 256.119 C 82.133 260.027,93.133 282.371,94.848 284.840 C 101.046 293.767,112.617 313.844,115.228 320.199 C 116.037 322.169,117.196 324.945,117.804 326.368 C 119.308 329.886,120.129 334.388,121.417 346.165 C 122.106 352.467,122.053 364.571,121.309 370.845 C 119.894 382.778,122.945 388.951,131.940 392.350 C 133.056 392.772,141.666 394.068,147.065 394.628 C 153.824 395.329,167.325 395.105,174.925 394.168 C 179.085 393.654,183.473 393.120,184.677 392.980 C 186.982 392.711,193.109 390.123,193.691 389.172 C 193.877 388.866,194.638 388.192,195.381 387.673 C 199.770 384.608,200.615 375.025,197.194 367.108 C 196.214 364.838,196.423 361.351,197.690 358.850 C 198.994 356.277,199.403 355.956,203.501 354.285 C 205.382 353.518,220.883 353.679,222.977 354.487 C 228.123 356.472,231.007 363.448,228.411 367.631 C 223.743 375.152,225.575 384.419,232.438 388.001 C 239.732 391.808,271.639 394.375,282.388 392.019 C 284.358 391.588,287.598 390.903,289.588 390.497 C 301.461 388.078,302.879 384.483,302.879 356.816 C 302.878 335.960,303.716 325.927,306.335 315.423 C 307.318 311.483,308.290 307.542,308.495 306.667 C 308.867 305.074,309.381 303.726,311.114 299.789 C 311.623 298.633,312.040 297.586,312.040 297.461 C 312.040 297.337,312.290 296.670,312.596 295.981 C 312.902 295.291,313.696 293.383,314.361 291.741 C 315.025 290.100,318.529 282.863,322.145 275.659 C 330.191 259.635,333.462 251.912,335.743 243.552 C 336.742 239.890,337.320 238.418,337.601 238.817 C 338.852 240.591,339.667 243.972,340.136 249.337 C 340.423 252.611,340.835 256.104,341.052 257.098 C 341.269 258.092,341.564 259.801,341.706 260.896 C 341.848 261.990,342.102 263.065,342.270 263.284 C 342.438 263.502,343.507 265.473,344.646 267.662 C 351.047 279.963,368.637 284.738,381.814 277.750 C 392.389 272.142,398.154 254.036,393.027 242.533 C 392.650 241.687,391.929 240.100,391.425 239.005 C 390.922 237.910,389.756 235.313,388.836 233.234 C 382.877 219.769,374.799 204.392,370.121 197.612 C 368.158 194.766,365.538 190.915,364.299 189.055 C 362.222 185.935,358.615 181.178,357.327 179.858 C 356.895 179.415,352.668 174.268,351.028 172.189 C 350.834 171.943,349.863 170.795,348.870 169.638 C 347.877 168.482,347.042 167.228,347.014 166.852 C 346.936 165.811,346.830 165.037,345.906 158.806 C 343.413 142.004,340.889 129.200,338.649 121.990 C 337.765 119.144,336.443 114.846,335.712 112.438 C 332.836 102.968,326.383 87.453,322.468 80.597 C 321.844 79.502,320.470 76.957,319.417 74.941 L 317.501 71.274 318.401 69.169 C 318.896 68.012,320.001 65.580,320.856 63.765 C 322.665 59.926,323.821 49.403,322.870 45.427 C 322.627 44.412,322.140 41.970,321.786 40.000 C 320.733 34.127,316.100 26.585,310.417 21.493 C 308.585 19.851,306.544 17.994,305.881 17.367 C 305.219 16.740,303.512 15.694,302.090 15.042 C 292.612 10.702,292.932 10.811,287.744 10.169 C 277.699 8.927,270.855 10.212,262.850 14.842 L 257.640 17.855 250.313 15.693 C 243.310 13.627,238.163 12.377,233.093 11.511 C 231.811 11.293,229.572 10.835,228.117 10.496 C 225.252 9.826,217.316 8.726,208.159 7.729 C 200.830 6.931,181.441 7.130,175.323 8.067 C 173.134 8.402,169.552 8.883,167.363 9.137 C 165.174 9.390,162.846 9.745,162.189 9.926 C 160.825 10.303,156.356 11.240,150.846 12.306 C 146.516 13.142,146.993 13.302,142.314 9.445 C 139.877 7.435,139.131 7.040,133.243 4.640 C 129.915 3.284,118.634 2.026,117.798 2.917 M125.028 5.191 C 128.820 5.523,130.297 5.854,133.187 7.019 C 138.108 9.003,138.580 9.278,142.389 12.375 C 146.440 15.669,145.483 15.602,156.624 13.378 C 161.436 12.417,167.612 11.346,170.348 10.998 C 173.085 10.650,176.935 10.164,178.905 9.917 C 184.135 9.262,207.462 9.642,213.134 10.475 C 215.542 10.828,218.856 11.275,220.498 11.467 C 225.119 12.009,240.144 15.091,244.577 16.407 C 246.766 17.056,249.811 17.947,251.343 18.386 C 252.876 18.825,255.197 19.510,256.502 19.909 C 258.924 20.650,260.299 20.454,260.299 19.367 C 260.299 19.089,261.687 18.083,263.383 17.132 C 265.080 16.181,267.193 14.997,268.079 14.500 C 268.966 14.003,270.936 13.410,272.458 13.183 C 273.979 12.955,276.478 12.493,278.010 12.155 C 280.505 11.605,281.217 11.603,284.827 12.139 C 287.044 12.467,289.322 12.736,289.888 12.736 C 291.987 12.736,302.752 17.409,304.360 19.018 C 304.753 19.411,306.662 21.155,308.603 22.892 C 311.039 25.073,312.809 27.102,314.318 29.444 C 315.520 31.309,317.002 33.573,317.610 34.475 C 319.654 37.505,320.971 45.728,320.643 53.407 L 320.374 59.691 317.799 65.085 C 314.705 71.565,314.723 71.197,317.270 75.747 C 318.395 77.758,319.721 80.209,320.215 81.194 C 320.709 82.179,321.840 84.222,322.728 85.734 C 323.615 87.245,325.050 90.290,325.917 92.500 C 326.783 94.709,328.506 99.114,329.747 102.289 C 333.539 111.994,338.232 127.683,339.686 135.522 C 340.255 138.587,340.885 141.900,341.088 142.886 C 341.290 143.871,341.826 147.095,342.280 150.050 C 342.733 153.005,343.270 156.408,343.473 157.612 C 343.676 158.816,344.042 161.234,344.287 162.985 C 344.532 164.736,344.802 166.598,344.887 167.122 C 344.973 167.646,345.453 168.657,345.954 169.368 C 347.003 170.858,351.344 176.190,357.196 183.176 C 360.724 187.389,371.720 203.774,374.228 208.557 C 379.412 218.440,383.812 227.128,384.282 228.406 C 384.575 229.201,386.360 233.254,388.249 237.413 C 393.031 247.940,393.644 252.167,391.715 261.335 C 391.527 262.233,390.751 264.025,389.992 265.315 C 389.233 266.606,388.357 268.175,388.045 268.802 C 387.733 269.430,386.041 271.247,384.284 272.842 C 371.020 284.884,346.957 277.174,343.893 259.900 C 343.640 258.478,343.271 256.507,343.071 255.522 C 342.872 254.537,342.516 251.327,342.280 248.388 C 341.882 243.408,341.730 242.757,340.059 238.836 C 337.380 232.550,336.696 232.267,335.358 236.897 C 333.271 244.122,332.187 247.594,331.344 249.751 C 330.831 251.065,329.742 253.930,328.924 256.119 C 328.106 258.308,324.338 266.279,320.551 273.831 C 310.840 293.197,306.994 302.712,304.462 313.632 C 304.284 314.398,303.759 316.368,303.295 318.010 C 301.823 323.222,301.268 331.558,300.882 354.229 C 300.518 375.630,300.365 378.002,299.141 381.290 C 297.902 384.615,293.952 387.443,289.393 388.267 C 287.729 388.567,284.679 389.181,282.615 389.631 C 271.856 391.973,240.750 389.681,233.385 386.003 C 228.085 383.356,226.592 376.217,229.977 369.706 C 233.533 362.864,230.744 355.206,223.690 352.441 C 219.996 350.993,206.192 350.931,202.379 352.345 C 195.771 354.795,192.410 361.461,194.850 367.276 C 198.099 375.023,197.754 383.394,194.085 385.798 C 193.529 386.162,192.662 386.879,192.159 387.391 C 190.535 389.043,186.451 390.518,181.914 391.093 C 179.603 391.386,176.010 391.853,173.930 392.131 C 167.138 393.040,149.069 392.804,141.095 391.702 C 124.767 389.447,122.070 385.657,123.753 367.338 C 125.040 353.327,122.997 333.018,119.431 324.378 C 116.413 317.066,115.513 315.167,112.461 309.660 C 110.942 306.919,109.241 303.834,108.680 302.805 C 108.120 301.775,106.408 298.942,104.876 296.509 C 103.343 294.076,101.373 290.948,100.498 289.559 C 99.071 287.295,95.646 281.753,94.713 280.199 C 93.477 278.140,83.635 257.750,83.090 256.119 C 82.725 255.025,81.603 251.980,80.597 249.353 C 79.592 246.726,78.497 243.771,78.164 242.786 C 77.831 241.801,77.299 240.425,76.982 239.728 C 76.665 239.031,75.617 235.359,74.653 231.569 C 73.689 227.778,72.353 222.617,71.684 220.100 C 65.135 195.453,62.775 163.142,65.840 140.100 C 66.175 137.582,66.821 132.567,67.276 128.955 C 67.731 125.343,68.447 121.045,68.867 119.403 C 70.337 113.661,72.438 104.754,72.438 104.264 C 72.438 103.991,72.775 103.033,73.186 102.133 C 73.598 101.234,74.965 97.811,76.225 94.527 C 77.485 91.244,79.447 86.766,80.586 84.577 C 83.676 78.640,88.705 69.617,89.685 68.254 C 91.365 65.917,97.136 57.716,98.103 56.291 L 99.084 54.845 97.947 52.796 C 90.960 40.197,90.488 30.066,96.373 19.003 C 97.613 16.673,102.609 11.737,106.007 9.485 C 110.947 6.211,110.772 6.283,115.622 5.540 C 118.030 5.171,120.090 4.850,120.199 4.827 C 120.308 4.803,122.481 4.967,125.028 5.191 M47.652 82.933 C 57.459 85.793,64.323 92.373,68.259 102.687 L 69.653 106.341 68.809 110.185 C 68.345 112.300,67.924 114.567,67.874 115.224 C 67.823 115.881,67.732 116.507,67.671 116.617 C 67.217 117.432,64.864 135.104,64.094 143.483 C 62.803 157.529,62.496 172.191,63.245 184.080 C 63.758 192.232,63.758 192.239,63.383 192.238 C 63.219 192.237,62.458 191.693,61.692 191.028 C 60.925 190.362,58.602 188.438,56.528 186.750 C 52.334 183.337,50.820 181.864,44.179 174.732 C 41.662 172.028,38.886 169.074,38.010 168.167 C 36.064 166.152,27.354 155.822,23.853 151.377 C 22.445 149.590,20.168 146.276,18.793 144.014 C 15.659 138.858,16.048 139.494,12.903 134.380 C 11.440 132.000,9.832 128.956,9.330 127.614 C 8.828 126.272,8.048 124.196,7.596 123.001 C 2.058 108.359,11.682 88.687,26.803 83.739 C 34.480 81.228,40.947 80.978,47.652 82.933" />
        <path id="nose" fill="#040404" fill-rule="evenodd" stroke="none"
            d="M175.323 132.943 C 168.617 135.292,170.531 142.067,178.990 145.922 C 188.202 150.120,201.403 142.214,197.063 135.097 C 195.346 132.281,181.210 130.881,175.323 132.943" />
        <path id="mouse" fill="#0f0f0f" fill-rule="evenodd" stroke="none"
            d="M167.562 159.492 C 167.563 160.443,171.938 163.387,175.808 165.040 C 186.364 169.549,203.476 167.240,209.925 160.437 C 211.383 158.899,211.011 158.882,208.407 160.365 C 198.669 165.913,180.223 166.106,170.448 160.761 C 168.861 159.893,167.562 159.322,167.562 159.492" />

        <path id="eyes" fill="#000000" fill-rule="evenodd" stroke="none"
            d="M136.664 97.163 C 128.095 100.108,114.471 112.925,108.268 123.876 C 94.117 148.859,94.561 170.098,109.350 175.642 C 116.971 178.499,121.040 177.562,131.973 170.436 C 148.072 159.942,158.841 147.275,165.280 131.259 L 168.438 123.404 168.300 118.661 C 167.805 101.633,152.977 91.557,136.664 97.163 M230.538 96.128 C 216.862 97.539,206.987 113.005,209.990 128.310 C 211.064 133.782,217.025 145.109,221.387 149.967 C 223.116 151.892,225.640 154.771,226.995 156.363 C 234.259 164.898,252.135 175.246,261.327 176.237 C 277.653 177.997,289.518 168.536,291.836 151.910 C 293.941 136.812,272.861 108.758,253.853 101.363 C 251.218 100.337,248.150 98.981,247.036 98.348 C 244.995 97.190,237.816 95.557,235.364 95.693 C 234.637 95.733,232.466 95.929,230.538 96.128 M148.585 111.435 C 164.283 114.980,168.330 135.371,155.033 143.926 C 138.454 154.593,119.555 135.693,130.131 119.022 C 133.016 114.474,137.669 111.821,144.745 110.689 C 144.917 110.661,146.646 110.997,148.585 111.435 M245.203 114.826 C 253.980 117.119,259.299 126.607,257.148 136.132 C 252.918 154.865,225.949 154.775,221.993 136.015 C 219.000 121.820,230.788 111.060,245.203 114.826 M139.311 116.716 C 126.957 123.871,128.472 140.030,141.824 143.532 C 152.474 146.326,162.859 134.901,158.442 125.252 C 154.355 116.326,146.237 112.704,139.311 116.716 M232.423 118.196 C 223.056 123.657,221.020 136.229,228.570 141.988 C 230.287 143.297,231.044 143.521,230.487 142.553 C 230.278 142.190,230.318 142.102,230.583 142.345 C 230.834 142.574,231.039 143.023,231.039 143.343 C 231.039 146.363,242.183 145.789,246.741 142.534 C 260.025 133.047,246.471 110.006,232.423 118.196 M146.869 119.188 C 149.643 121.369,149.727 124.092,147.065 125.469 C 143.222 127.456,139.518 124.081,141.665 120.550 C 143.203 118.021,144.841 117.592,146.869 119.188 M241.488 120.690 C 244.261 122.871,244.346 125.593,241.683 126.970 C 237.888 128.933,234.196 125.728,236.072 122.101 C 237.400 119.533,239.366 119.021,241.488 120.690" />
        <path id="path3" fill="#e84a10" fill-rule="evenodd" stroke="none"
            d="M189.229 48.969 C 181.936 49.298,182.794 49.158,171.741 51.815 C 151.093 56.778,134.741 65.363,120.509 78.713 C 114.162 84.666,102.782 97.204,100.082 101.218 C 97.772 104.653,89.960 120.927,88.009 126.368 C 86.831 129.652,85.367 133.502,84.755 134.925 C 84.142 136.350,83.528 138.674,83.387 140.100 C 83.247 141.522,82.851 145.015,82.507 147.861 C 81.684 154.671,82.049 168.468,83.181 173.314 C 85.815 184.598,86.605 187.256,89.394 194.229 C 93.130 203.565,98.299 211.200,107.916 221.584 C 122.212 237.019,142.662 245.666,175.467 250.143 L 186.357 251.630 197.557 251.188 C 203.716 250.946,210.458 250.489,212.537 250.173 C 214.617 249.857,219.184 249.216,222.687 248.750 C 228.943 247.917,242.927 244.174,247.697 242.057 C 266.850 233.555,284.076 218.835,294.439 202.118 C 300.206 192.813,299.383 194.415,303.310 184.836 L 306.557 176.915 308.083 167.761 C 309.322 160.325,309.683 156.889,310.008 149.453 L 310.408 140.299 308.824 130.707 C 307.431 122.272,307.033 120.617,305.518 116.976 C 302.098 108.754,301.349 106.848,301.122 105.792 C 300.994 105.199,300.391 104.424,299.774 104.059 C 299.145 103.688,296.760 100.589,294.320 96.973 C 289.395 89.674,278.414 78.105,272.616 74.106 C 269.225 71.767,262.146 66.659,260.640 65.464 C 257.408 62.899,241.477 56.014,234.297 54.079 C 222.606 50.927,221.141 50.636,211.617 49.572 C 202.292 48.530,200.223 48.474,189.229 48.969 M213.333 53.302 C 230.393 55.323,250.990 62.627,261.294 70.308 C 263.045 71.614,266.716 74.315,269.453 76.310 C 282.980 86.176,295.799 102.539,301.808 117.612 C 303.836 122.697,304.156 123.948,305.481 131.932 L 306.932 140.680 306.487 149.643 C 306.152 156.406,305.695 160.709,304.627 167.164 C 300.042 194.885,279.988 221.421,253.134 235.299 C 240.180 241.995,231.873 244.215,209.552 246.948 C 200.902 248.007,186.423 248.121,179.900 247.182 C 176.726 246.725,172.082 246.079,169.581 245.748 C 153.134 243.566,133.522 236.828,122.845 229.691 C 113.729 223.598,99.862 208.379,95.430 199.602 C 93.073 194.936,89.517 184.739,88.367 179.349 C 87.672 176.090,86.912 172.956,86.679 172.384 C 86.446 171.811,86.034 167.493,85.764 162.786 L 85.272 154.229 86.435 146.126 C 87.989 135.292,91.719 124.682,98.657 111.357 L 103.069 102.886 109.605 95.323 C 125.748 76.647,137.201 68.018,155.456 60.779 C 176.001 52.632,191.156 50.674,213.333 53.302" />
        <path id="path4" fill="#d7e41f" fill-rule="evenodd" stroke="none"
            d="M189.652 58.910 C 174.443 60.182,151.067 68.300,141.775 75.536 C 140.963 76.169,139.134 77.466,137.711 78.418 C 131.876 82.326,125.822 87.038,123.459 89.511 C 114.263 99.135,106.233 109.477,104.641 113.747 C 104.419 114.340,103.686 115.894,103.011 117.200 C 102.337 118.506,101.268 121.005,100.637 122.753 C 100.005 124.501,99.220 126.342,98.892 126.843 C 98.563 127.344,97.647 129.591,96.856 131.837 C 96.064 134.083,95.260 136.119,95.070 136.361 C 94.662 136.879,93.270 141.968,92.514 145.701 C 91.501 150.704,91.055 161.014,91.696 164.577 C 92.012 166.328,92.375 168.746,92.504 169.950 C 92.733 172.090,94.756 179.715,95.725 182.090 C 95.993 182.746,96.530 184.269,96.918 185.473 C 98.063 189.026,99.179 191.840,99.530 192.057 C 99.996 192.345,102.237 195.702,103.335 197.757 C 105.882 202.521,109.470 206.259,117.468 212.482 C 125.600 218.809,143.782 226.776,157.015 229.810 C 171.807 233.203,192.958 234.994,204.179 233.804 C 215.752 232.578,222.099 231.609,225.933 230.483 C 228.088 229.851,230.478 229.207,231.244 229.053 C 254.104 224.449,283.069 199.583,290.794 177.930 C 291.696 175.402,292.994 171.900,293.678 170.149 C 295.847 164.596,296.831 159.852,297.866 149.951 C 298.647 142.479,297.821 129.222,296.110 121.791 C 295.682 119.930,294.876 116.438,294.318 114.030 C 293.043 108.520,291.874 106.280,286.637 99.321 C 282.694 94.082,274.564 85.174,273.725 85.174 C 273.518 85.174,271.979 84.134,270.306 82.864 C 267.279 80.565,257.648 74.030,257.288 74.030 C 257.184 74.030,256.431 73.610,255.614 73.097 C 248.525 68.644,239.742 64.778,232.475 62.911 C 229.808 62.226,226.693 61.294,225.554 60.839 C 221.383 59.176,200.132 58.034,189.652 58.910 M213.340 62.706 C 220.131 63.275,222.958 63.785,228.259 65.401 C 229.353 65.735,232.129 66.529,234.428 67.166 C 239.975 68.704,253.591 75.536,259.701 79.848 C 262.109 81.547,265.154 83.660,266.468 84.544 C 270.398 87.188,281.442 98.663,284.694 103.483 C 285.802 105.124,287.421 107.439,288.293 108.627 C 289.308 110.008,290.054 111.585,290.366 113.005 C 290.633 114.225,291.339 117.373,291.934 120.000 C 293.947 128.891,294.133 130.335,294.390 139.104 C 294.597 146.173,294.518 148.781,293.983 152.637 C 293.619 155.264,293.131 158.824,292.900 160.548 C 292.670 162.273,292.321 163.974,292.126 164.329 C 291.809 164.906,289.206 171.980,287.349 177.313 C 286.727 179.098,280.937 189.227,278.428 192.920 C 277.561 194.196,271.676 200.668,267.295 205.165 C 266.437 206.046,264.870 207.393,263.813 208.159 C 247.355 220.086,241.982 222.889,229.054 226.288 C 220.332 228.581,220.769 228.512,204.975 230.099 C 198.234 230.776,180.602 230.311,174.129 229.286 C 169.215 228.507,157.760 226.424,156.418 226.065 C 152.891 225.122,137.248 219.710,135.494 218.826 C 129.780 215.947,122.377 211.988,121.969 211.594 C 121.713 211.347,120.897 210.663,120.155 210.075 C 112.671 204.146,107.162 198.529,107.085 196.750 C 107.074 196.494,106.926 196.226,106.756 196.153 C 104.607 195.229,98.187 180.664,96.698 173.333 C 93.998 160.042,94.712 145.523,98.498 136.716 C 98.781 136.060,99.872 133.015,100.924 129.950 C 101.976 126.886,103.358 123.489,103.995 122.403 C 104.632 121.317,106.284 118.182,107.666 115.438 C 110.010 110.782,111.301 108.788,114.518 104.854 C 115.224 103.990,117.343 101.403,119.227 99.104 C 121.111 96.806,123.839 93.870,125.290 92.580 C 126.740 91.290,128.382 89.815,128.939 89.302 C 134.311 84.347,135.512 83.303,136.441 82.773 C 137.590 82.119,139.886 80.673,143.085 78.592 C 144.179 77.880,145.701 76.959,146.468 76.546 C 147.234 76.133,148.621 75.306,149.550 74.710 C 151.056 73.742,156.153 71.244,156.620 71.244 C 156.836 71.244,163.139 68.291,165.255 67.199 C 166.544 66.533,171.766 65.264,178.109 64.073 C 179.204 63.868,180.816 63.498,181.692 63.252 C 185.663 62.136,202.969 61.837,213.340 62.706" />
       <path id="path4" fill="#11F02C" fill-rule="evenodd" stroke="none"
            d="M189.851 53.395 C 184.020 53.677,178.514 54.509,174.129 55.769 C 163.144 58.927,151.222 63.821,142.634 68.698 C 139.598 70.422,136.419 72.193,135.568 72.633 C 129.281 75.886,113.116 91.789,107.414 100.332 C 95.599 118.033,93.745 121.996,88.763 140.199 C 87.691 144.116,85.956 157.475,86.200 159.930 C 87.557 173.566,87.743 174.533,90.747 183.561 C 97.277 203.182,112.095 220.915,129.182 229.558 C 150.963 240.574,188.207 245.398,217.313 240.973 C 230.834 238.917,239.126 236.066,256.041 227.658 C 257.311 227.027,259.436 225.650,260.763 224.598 C 262.090 223.547,264.722 221.456,266.612 219.952 C 275.839 212.613,284.277 202.618,292.049 189.823 C 293.560 187.335,297.592 176.656,298.501 172.736 C 298.983 170.657,299.708 167.970,300.112 166.766 C 304.835 152.688,304.403 136.849,298.725 115.935 C 296.293 106.977,291.540 99.256,282.312 89.273 C 281.259 88.134,279.144 85.834,277.612 84.162 C 275.116 81.438,268.747 76.278,263.880 73.036 C 262.895 72.380,262.000 71.741,261.891 71.617 C 260.764 70.335,249.689 64.589,242.388 61.498 C 239.950 60.466,227.592 56.520,223.881 55.588 C 221.412 54.969,214.419 54.102,205.771 53.344 C 200.788 52.908,199.843 52.911,189.851 53.395 M213.134 57.521 C 229.141 59.660,247.240 66.126,258.407 73.696 C 271.921 82.856,284.271 95.255,290.853 106.269 C 298.367 118.842,302.331 146.071,298.733 160.398 C 294.469 177.379,290.939 186.056,284.074 196.434 C 279.111 203.938,277.940 205.387,273.374 209.679 C 263.507 218.954,253.715 225.930,245.970 229.203 C 234.435 234.079,228.264 235.949,219.368 237.265 C 216.377 237.708,212.945 238.240,211.741 238.447 C 207.983 239.093,185.384 239.364,179.455 238.833 C 164.670 237.511,158.526 236.340,143.284 231.941 C 131.748 228.611,118.208 219.830,109.591 210.090 C 107.005 207.167,104.439 204.269,103.888 203.648 C 102.525 202.114,97.968 193.580,96.096 189.055 C 90.363 175.200,88.233 161.757,90.137 151.443 C 90.461 149.692,91.002 146.398,91.341 144.125 C 92.157 138.649,95.849 127.496,99.099 120.685 C 110.646 96.486,130.267 76.566,151.329 67.658 C 154.018 66.521,158.010 64.822,160.199 63.884 C 165.574 61.581,169.866 60.329,181.294 57.734 C 186.991 56.441,204.186 56.326,213.134 57.521" />
        <path id="path5" fill="#17f1f1" fill-rule="evenodd" stroke="none"
            d="M184.535 39.444 C 170.486 40.664,158.974 44.075,141.071 52.325 C 137.070 54.169,123.407 63.451,119.403 67.046 C 117.542 68.717,114.498 71.409,112.637 73.030 C 106.565 78.320,96.178 90.183,93.194 95.236 C 86.925 105.853,85.538 108.442,83.874 112.637 C 79.494 123.680,78.408 126.526,78.408 126.962 C 78.408 127.217,77.510 131.081,76.412 135.548 C 74.446 143.543,74.200 145.244,73.201 157.731 C 72.122 171.223,75.039 188.455,80.493 200.796 C 84.839 210.633,86.014 212.853,90.286 219.303 C 102.737 238.104,120.407 251.136,143.881 258.831 C 155.372 262.597,167.671 264.473,183.563 264.882 C 230.084 266.080,266.443 254.553,290.078 231.115 C 298.223 223.038,306.167 212.385,310.016 204.378 C 315.670 192.618,316.364 190.881,317.805 184.876 C 318.592 181.592,319.600 177.505,320.043 175.794 C 320.753 173.054,321.407 166.953,322.205 155.622 C 322.712 148.423,320.515 134.972,317.200 124.975 C 314.538 116.948,313.707 115.016,309.081 106.099 C 308.081 104.172,307.262 102.303,307.260 101.945 C 307.256 101.354,304.156 96.501,298.034 87.507 C 293.689 81.124,275.497 64.491,266.667 58.827 C 249.801 48.011,225.480 39.978,207.363 39.242 C 203.970 39.104,199.493 38.916,197.413 38.823 C 195.333 38.731,189.538 39.010,184.535 39.444 M206.567 42.801 C 212.961 43.045,214.721 43.304,225.582 45.609 C 231.592 46.884,234.811 47.937,247.363 52.733 C 251.464 54.300,265.797 62.370,268.798 64.801 C 270.362 66.069,273.895 68.929,276.649 71.157 C 287.250 79.734,298.094 92.323,301.753 100.299 C 302.305 101.502,303.592 103.826,304.612 105.462 C 305.633 107.098,306.468 108.669,306.468 108.952 C 306.468 109.563,308.257 113.074,309.539 114.979 C 310.037 115.720,311.158 118.496,312.029 121.148 C 312.899 123.800,314.308 128.030,315.158 130.547 C 316.008 133.065,316.817 136.109,316.955 137.313 C 317.093 138.517,317.577 142.547,318.031 146.269 C 319.105 155.073,318.282 167.974,316.076 176.915 C 315.428 179.542,314.432 183.625,313.862 185.987 C 313.095 189.170,312.041 191.902,309.795 196.534 C 308.127 199.973,306.435 203.546,306.034 204.474 C 300.104 218.201,276.648 240.798,262.104 246.794 C 260.126 247.610,256.716 249.027,254.527 249.944 C 223.513 262.932,175.085 265.357,144.876 255.434 C 137.143 252.894,123.576 246.576,119.801 243.756 C 118.816 243.021,115.836 240.845,113.179 238.921 C 103.887 232.192,91.628 217.112,87.123 206.869 C 86.232 204.842,85.048 202.199,84.494 200.995 C 81.986 195.552,81.792 194.958,78.361 182.160 C 77.961 180.667,77.535 177.533,77.415 175.195 C 77.295 172.858,76.994 169.481,76.748 167.691 C 76.382 165.037,76.420 163.386,76.956 158.736 C 77.317 155.600,77.696 151.065,77.799 148.657 C 77.947 145.153,78.384 142.673,79.987 136.237 C 81.089 131.815,81.990 127.978,81.990 127.712 C 81.990 127.446,82.962 124.796,84.150 121.823 C 85.337 118.850,86.852 114.927,87.516 113.104 C 88.615 110.085,90.472 106.704,96.592 96.572 C 99.348 92.009,109.383 80.784,115.872 75.005 C 118.564 72.608,121.668 69.821,122.771 68.812 C 123.874 67.803,126.388 65.901,128.358 64.585 C 130.328 63.270,133.910 60.885,136.318 59.285 C 138.726 57.686,142.398 55.625,144.478 54.707 C 146.557 53.788,150.362 52.116,152.934 50.991 C 158.484 48.563,173.516 44.215,178.109 43.710 C 186.573 42.779,193.950 42.272,197.015 42.412 C 198.876 42.497,203.174 42.672,206.567 42.801" />
        <path id="path6" fill="#8c78b9" fill-rule="evenodd" stroke="none"
            d="M191.443 43.110 C 191.333 43.222,187.207 43.777,182.274 44.345 L 173.304 45.377 163.965 48.501 C 155.544 51.318,142.058 56.784,137.898 59.066 C 125.363 65.943,101.204 89.777,94.520 101.860 C 87.963 113.715,87.100 115.568,84.351 123.702 C 77.431 144.178,75.582 162.506,78.743 179.303 C 80.372 187.964,80.051 186.965,85.276 199.602 C 92.631 217.389,112.702 237.842,129.616 244.785 C 132.865 246.118,136.507 247.631,137.711 248.146 C 143.130 250.465,158.220 254.565,163.980 255.282 C 193.389 258.947,199.312 259.004,225.473 255.878 C 235.935 254.628,237.551 254.208,251.413 249.144 C 261.458 245.475,273.862 237.705,284.378 228.497 C 297.688 216.842,311.744 191.411,314.426 174.129 C 314.868 171.284,315.490 167.522,315.810 165.771 C 316.219 163.523,316.394 159.522,316.404 152.163 L 316.418 141.738 314.670 133.655 C 312.844 125.211,310.270 117.007,308.697 114.622 C 308.190 113.853,307.638 112.778,307.471 112.234 C 307.303 111.689,307.032 111.065,306.869 110.846 C 306.705 110.627,306.342 109.731,306.061 108.856 C 305.780 107.980,305.147 106.726,304.653 106.070 C 304.159 105.413,302.910 103.264,301.877 101.294 C 300.844 99.323,299.887 97.622,299.750 97.512 C 299.475 97.293,298.389 95.665,295.502 91.144 C 294.197 89.102,291.261 85.834,286.201 80.794 C 271.276 65.929,258.681 57.721,239.801 50.556 L 230.647 47.081 220.697 45.461 C 212.996 44.206,209.171 43.786,203.781 43.600 C 199.950 43.469,195.652 43.259,194.229 43.134 C 192.806 43.010,191.552 42.999,191.443 43.110 M212.935 47.986 C 228.891 50.191,228.048 49.972,244.115 56.074 C 245.831 56.726,249.950 58.755,253.269 60.583 C 256.588 62.410,260.164 64.348,261.216 64.888 C 262.269 65.429,264.866 67.249,266.988 68.934 C 269.110 70.619,271.785 72.742,272.933 73.653 C 274.080 74.564,274.903 75.497,274.762 75.726 C 274.606 75.978,274.697 76.023,274.994 75.840 C 275.278 75.665,275.793 75.848,276.219 76.276 C 276.623 76.682,280.034 80.060,283.800 83.781 C 289.989 89.897,299.303 101.841,299.303 103.661 C 299.303 103.950,299.880 104.697,301.245 106.176 C 301.765 106.740,302.599 108.380,303.098 109.820 C 303.597 111.260,304.466 113.647,305.031 115.124 C 305.595 116.602,305.957 117.811,305.836 117.811 C 305.714 117.811,305.896 118.092,306.240 118.436 C 306.584 118.780,306.978 119.765,307.115 120.625 C 307.253 121.485,307.526 122.189,307.722 122.189 C 308.337 122.189,308.862 124.099,310.878 133.667 L 312.836 142.957 312.830 151.976 C 312.802 197.615,286.395 233.599,241.990 248.509 C 224.363 254.427,200.222 255.707,170.547 252.296 C 159.908 251.072,159.246 250.955,153.831 249.335 C 152.080 248.811,148.587 247.766,146.070 247.013 C 137.887 244.566,126.149 239.557,122.883 237.119 C 121.297 235.935,117.940 233.434,115.423 231.559 C 110.877 228.175,99.754 217.377,98.698 215.323 C 98.416 214.776,96.506 211.770,94.453 208.644 C 90.265 202.264,90.572 202.867,86.778 193.565 C 83.968 186.674,83.603 185.273,81.382 172.883 C 80.301 166.853,80.710 151.937,82.100 146.667 C 82.678 144.478,83.615 140.537,84.183 137.910 C 84.751 135.284,85.654 131.791,86.189 130.149 C 86.724 128.507,87.887 124.925,88.773 122.189 C 89.834 118.912,91.351 115.447,93.214 112.040 C 94.770 109.194,96.763 105.522,97.641 103.881 C 104.156 91.710,130.934 65.954,142.090 61.128 C 143.512 60.513,147.363 58.846,150.647 57.424 C 160.893 52.987,173.473 49.110,180.100 48.348 C 183.164 47.995,186.657 47.550,187.861 47.358 C 190.939 46.868,207.922 47.293,212.935 47.986" />
        <path id="path7" fill="#217576" fill-rule="evenodd" stroke="none"
            d="M174.999 305.830 C 168.167 308.358,169.639 319.503,176.816 319.593 C 178.122 319.610,177.516 318.994,175.533 318.290 C 170.068 316.349,169.728 309.124,174.992 306.795 C 181.716 303.821,186.866 312.253,181.406 317.294 C 179.501 319.052,179.567 319.618,181.523 318.300 C 188.324 313.716,182.706 302.978,174.999 305.830 M189.781 306.171 C 187.952 307.289,186.732 308.826,186.414 310.415 C 186.044 312.267,187.099 311.959,188.060 309.936 C 190.090 305.661,195.859 305.261,198.500 309.213 C 199.759 311.099,199.654 312.112,198.125 312.836 C 192.714 315.398,193.214 324.125,198.879 325.994 C 203.035 327.366,208.583 324.160,208.084 320.674 C 207.985 319.980,207.762 320.197,206.955 321.768 C 205.097 325.392,201.381 326.461,197.971 324.354 C 195.977 323.121,194.350 319.475,195.755 319.386 C 197.513 319.276,200.597 315.652,200.597 313.696 C 200.597 312.731,200.957 312.664,203.045 313.244 C 204.573 313.668,207.363 316.363,207.363 317.414 C 207.363 317.742,207.542 318.010,207.761 318.010 C 210.497 318.010,205.470 312.469,202.536 312.250 C 200.932 312.130,200.826 312.043,200.353 310.441 C 199.033 305.970,193.661 303.801,189.781 306.171 M199.401 313.731 C 199.399 314.612,197.925 316.680,196.656 317.584 C 194.449 319.156,195.223 316.354,197.553 314.339 C 198.941 313.139,199.404 312.986,199.401 313.731 M186.442 314.667 C 187.054 317.105,189.775 319.426,192.312 319.672 C 194.285 319.865,194.065 318.733,192.048 318.314 C 190.273 317.945,188.555 316.501,187.841 314.779 C 187.223 313.286,186.072 313.194,186.442 314.667" />
        <path id="path8" fill="#eb435c" fill-rule="evenodd" stroke="none"
            d="M206.579 305.904 C 204.131 306.966,201.578 310.394,202.528 311.344 C 202.800 311.616,203.138 311.249,203.570 310.216 C 206.188 303.951,215.323 305.582,215.323 312.315 C 215.323 319.036,206.807 321.154,203.764 315.190 C 202.903 313.502,201.961 313.044,202.401 314.527 C 203.955 319.775,211.505 321.273,214.865 317.001 C 219.404 311.231,213.262 303.005,206.579 305.904" />
        <path id="path9" fill="#f5b72e" fill-rule="evenodd" stroke="none"
            d="M185.302 312.392 C 185.182 312.585,185.873 312.942,186.837 313.185 C 188.768 313.671,190.906 315.526,191.287 317.046 C 191.420 317.576,191.781 318.010,192.088 318.010 C 192.762 318.010,191.874 315.574,190.731 314.287 C 189.419 312.809,185.820 311.553,185.302 312.392 M181.038 313.618 C 175.075 318.534,179.588 327.635,187.274 326.194 C 189.020 325.866,192.019 323.051,192.325 321.454 C 192.661 319.696,191.975 319.869,191.053 321.775 C 188.302 327.456,180.255 326.141,179.233 319.843 C 178.948 318.087,180.225 315.324,181.889 314.094 C 183.017 313.260,183.458 312.438,182.777 312.438 C 182.608 312.438,181.826 312.969,181.038 313.618" />
    </g>
</svg>