<svg id="svg" version="1.1" xmlns="http://www.w3.org/2000/svg" xmlns:xlink="http://www.w3.org/1999/xlink" width="400" height="398"
    viewBox="0, 0, 400,398">
    <g id="svgg">
        <path id="path0" fill="#050505" stroke="none"
            d="M120.153 14.375 C 119.631 14.530,117.941 15.025,116.397 15.475 C 111.910 16.783,107.361 19.982,104.055 24.155 L 101.311 27.616 100.611 31.818 C 99.475 38.631,100.101 43.646,102.537 47.247 C 105.165 51.131,105.390 51.327,106.092 50.348 C 112.526 41.377,121.371 32.587,131.841 24.761 C 134.851 22.510,137.311 20.541,137.307 20.385 C 137.260 18.188,123.523 13.375,120.153 14.375 M281.299 25.658 C 277.334 26.107,269.366 29.896,270.339 30.869 C 270.430 30.961,272.821 32.527,275.651 34.349 C 281.229 37.940,288.984 43.815,291.537 46.383 C 292.416 47.266,295.069 50.018,297.434 52.498 C 299.799 54.977,301.855 56.885,302.003 56.737 C 303.476 55.264,304.666 50.156,304.605 45.572 L 304.541 40.796 302.533 37.214 C 301.038 34.548,299.839 33.021,297.845 31.244 C 293.762 27.604,293.629 27.523,290.082 26.492 C 288.258 25.963,286.498 25.449,286.169 25.351 C 285.841 25.253,283.649 25.391,281.299 25.658 M32.389 91.911 C 24.037 94.264,16.514 101.656,14.412 109.572 L 13.469 113.123 14.341 116.363 C 15.137 119.323,16.112 121.381,22.194 132.935 C 24.173 136.694,27.500 141.368,34.763 150.588 C 37.927 154.604,50.164 167.340,52.338 168.880 C 52.995 169.345,55.453 171.298,57.801 173.221 C 60.149 175.143,62.165 176.716,62.280 176.716 C 62.396 176.716,62.385 174.433,62.256 171.642 C 61.943 164.872,62.683 144.928,63.440 139.701 C 63.774 137.403,64.333 133.104,64.684 130.149 C 65.035 127.194,65.688 123.075,66.135 120.995 C 67.232 115.894,67.485 112.153,66.841 110.540 C 65.674 107.618,62.619 102.710,60.341 100.100 C 56.352 95.527,55.887 95.148,52.248 93.504 C 50.327 92.636,48.475 91.769,48.130 91.576 C 46.277 90.539,36.519 90.747,32.389 91.911 M48.875 99.266 C 52.039 100.912,52.663 102.834,52.109 109.230 C 51.761 113.243,49.821 122.650,49.217 123.254 C 48.579 123.892,38.801 119.863,34.273 117.097 C 29.129 113.954,27.949 110.013,31.034 106.269 L 32.182 104.876 35.792 104.876 C 37.778 104.876,39.426 104.786,39.454 104.677 C 39.482 104.567,39.546 104.101,39.596 103.641 C 39.997 99.955,45.350 97.431,48.875 99.266 M344.532 179.360 C 344.406 180.205,344.199 183.493,344.070 186.667 C 343.482 201.245,341.800 213.672,338.484 227.942 C 337.806 230.862,337.759 232.040,338.321 232.040 C 338.547 232.040,338.842 232.353,338.977 232.736 C 339.112 233.119,340.067 235.420,341.099 237.848 C 342.131 240.276,343.099 243.142,343.250 244.216 C 345.525 260.402,347.338 264.875,353.208 268.781 C 364.299 276.162,379.402 271.060,383.624 258.507 C 385.244 253.689,385.304 253.168,384.657 249.442 C 384.090 246.172,383.408 244.278,378.677 232.840 C 375.754 225.772,366.594 207.979,363.001 202.388 C 361.031 199.323,358.845 195.920,358.142 194.826 C 357.067 193.151,346.821 180.060,345.259 178.365 C 344.851 177.922,344.720 178.102,344.532 179.360 M293.731 317.610 C 293.184 317.793,291.124 318.426,289.154 319.017 C 279.135 322.023,274.154 323.734,272.267 324.820 C 271.923 325.018,269.524 326.064,266.936 327.144 C 258.644 330.604,247.018 337.575,240.596 342.937 C 237.532 345.495,234.490 348.031,233.837 348.573 L 232.649 349.559 234.696 351.396 C 239.372 355.594,239.821 359.133,236.721 367.363 C 235.214 371.362,236.405 375.065,239.887 377.205 C 246.867 381.496,274.980 381.419,282.189 377.089 C 288.305 373.416,289.277 370.093,290.151 349.851 C 290.736 336.299,291.083 333.996,294.533 320.748 C 295.578 316.739,295.637 316.972,293.731 317.610 M123.383 318.388 C 123.383 318.627,123.986 320.386,124.723 322.297 C 129.434 334.514,130.798 341.485,131.749 358.209 C 132.697 374.878,135.268 377.657,151.045 379.064 C 178.683 381.528,185.764 378.845,187.903 365.101 C 188.846 359.038,189.821 356.550,191.685 355.450 C 192.427 355.012,193.035 354.485,193.035 354.279 C 193.035 353.508,177.053 341.223,173.066 338.928 C 170.805 337.627,167.166 335.500,164.979 334.200 C 162.793 332.901,160.354 331.608,159.559 331.328 C 158.765 331.048,157.778 330.630,157.366 330.400 C 156.954 330.170,155.274 329.413,153.632 328.717 C 151.990 328.022,149.751 327.056,148.657 326.570 C 145.617 325.220,142.645 324.162,138.706 323.027 C 136.736 322.459,133.257 321.456,130.975 320.798 C 128.693 320.140,126.523 319.602,126.153 319.602 C 125.783 319.602,125.009 319.231,124.432 318.777 C 123.855 318.323,123.383 318.148,123.383 318.388" />
        <path id="love" fill="#a22b29" fill-rule="evenodd" stroke="none"
            d="M42.587 99.483 C 41.145 100.251,39.754 102.183,39.596 103.641 C 39.546 104.101,39.482 104.567,39.454 104.677 C 39.426 104.786,37.778 104.876,35.792 104.876 L 32.182 104.876 31.034 106.269 C 27.949 110.013,29.129 113.954,34.273 117.097 C 38.801 119.863,48.579 123.892,49.217 123.254 C 50.551 121.920,52.900 105.737,52.143 103.096 C 51.064 99.337,46.269 97.524,42.587 99.483" />
        <path id="iceborder" fill="#d1d1d1" fill-rule="evenodd" stroke="none"
            d="M118.196 2.923 C 118.080 3.044,116.289 3.355,114.216 3.613 C 109.786 4.166,101.925 8.489,99.779 11.553 C 99.462 12.005,98.200 13.436,96.975 14.731 C 95.751 16.026,94.457 17.764,94.100 18.593 C 91.029 25.720,90.821 26.462,90.339 31.979 C 90.078 34.967,89.992 37.726,90.147 38.109 C 90.303 38.492,90.766 40.418,91.177 42.388 C 91.711 44.951,92.562 47.230,94.167 50.400 L 96.410 54.830 93.954 58.360 C 88.831 65.726,87.595 67.477,87.197 67.933 C 86.971 68.191,86.224 69.445,85.536 70.719 C 84.848 71.993,82.716 75.900,80.799 79.403 C 77.858 84.775,71.244 100.076,71.244 101.508 C 71.244 102.638,70.144 101.629,69.548 99.952 C 68.977 98.343,65.651 92.826,63.122 89.292 C 61.315 86.768,53.273 82.268,47.761 80.697 L 42.388 79.165 36.882 79.591 C 31.334 80.021,21.682 82.389,20.697 83.562 C 20.587 83.692,18.799 85.213,16.723 86.941 C 13.600 89.541,10.632 92.861,9.903 94.570 C 9.819 94.766,9.062 95.944,8.219 97.189 C 7.116 98.818,6.251 100.939,5.133 104.751 L 3.579 110.050 4.013 115.423 C 4.449 120.825,6.700 128.891,7.614 128.326 C 7.800 128.211,7.847 128.389,7.720 128.720 C 7.439 129.451,11.526 136.730,17.114 145.450 C 17.443 145.963,18.307 147.387,19.035 148.616 C 19.763 149.844,20.570 151.072,20.828 151.345 C 21.369 151.918,25.780 157.141,26.667 158.259 C 32.412 165.509,35.921 169.445,45.167 179.012 C 47.571 181.500,49.631 183.662,49.744 183.818 C 49.959 184.112,51.534 185.448,59.443 192.044 C 64.743 196.464,64.498 196.068,65.599 202.001 C 66.045 204.403,66.515 206.905,66.644 207.562 C 68.407 216.531,68.492 216.885,73.046 234.229 C 73.793 237.075,75.499 242.269,76.836 245.771 C 78.173 249.274,79.891 253.841,80.655 255.920 C 81.986 259.547,93.233 282.519,94.685 284.577 C 95.071 285.124,96.070 286.647,96.904 287.960 C 97.738 289.274,98.932 291.115,99.558 292.051 C 100.184 292.988,100.697 293.846,100.697 293.958 C 100.697 294.069,101.871 295.954,103.307 298.146 C 104.743 300.337,106.745 303.688,107.756 305.593 C 108.767 307.497,110.431 310.510,111.452 312.289 C 113.028 315.032,118.413 327.238,119.157 329.751 C 119.286 330.189,119.768 333.234,120.227 336.517 C 122.239 350.907,122.557 359.574,121.436 369.446 C 119.900 382.970,122.916 389.428,132.139 392.369 C 138.138 394.282,162.109 395.600,171.741 394.546 C 186.547 392.927,190.735 391.834,194.145 388.698 C 194.738 388.152,195.631 387.382,196.128 386.987 C 200.099 383.831,200.062 367.789,196.078 365.290 C 195.750 365.084,195.762 364.875,196.123 364.514 C 196.395 364.242,196.614 363.653,196.611 363.204 C 196.606 362.531,196.537 362.493,196.219 362.985 C 195.879 363.511,195.832 363.509,195.827 362.965 C 195.824 362.626,195.972 362.178,196.157 361.970 C 196.342 361.762,196.894 360.576,197.385 359.334 C 198.370 356.841,199.878 355.527,202.985 354.458 C 205.565 353.571,220.428 353.561,222.934 354.445 C 227.950 356.215,230.945 362.893,228.639 367.164 C 223.897 375.944,225.415 384.334,232.405 387.987 C 240.676 392.310,271.760 394.353,284.975 391.443 C 288.454 390.677,291.534 390.050,291.819 390.050 C 292.761 390.049,296.409 387.891,298.447 386.129 C 302.244 382.845,302.875 378.595,302.887 356.219 C 302.892 345.678,303.085 338.465,303.471 334.328 C 303.787 330.935,304.167 326.816,304.314 325.174 C 304.462 323.532,305.378 319.055,306.351 315.224 C 307.324 311.393,308.289 307.576,308.496 306.741 C 308.702 305.906,308.768 305.055,308.641 304.850 C 308.514 304.645,308.585 304.478,308.797 304.478 C 309.010 304.478,309.723 303.090,310.382 301.393 C 313.648 292.987,315.998 287.776,321.032 277.775 C 329.629 260.696,329.377 261.239,332.504 253.037 C 333.669 249.983,335.283 245.040,336.232 241.621 C 336.623 240.214,337.115 239.007,337.327 238.940 C 338.325 238.621,339.797 244.194,340.444 250.746 C 341.470 261.135,341.638 261.859,344.134 266.703 C 346.443 271.185,346.967 271.774,352.637 276.266 C 358.555 280.955,368.522 282.313,376.783 279.556 C 392.000 274.478,399.317 256.607,392.416 241.371 C 391.728 239.851,389.950 235.831,388.465 232.438 C 383.628 221.384,375.860 206.315,372.188 200.863 C 370.738 198.711,369.104 196.259,368.557 195.414 C 364.157 188.619,359.268 181.847,357.327 179.858 C 356.895 179.415,352.668 174.268,351.028 172.189 C 350.834 171.943,349.863 170.795,348.870 169.638 C 347.877 168.482,347.065 167.466,347.065 167.380 C 347.065 167.294,346.355 162.420,345.488 156.547 C 344.109 147.202,343.257 142.344,340.893 130.348 C 340.087 126.260,334.378 107.734,332.920 104.478 C 332.626 103.821,331.234 100.235,329.826 96.509 C 327.344 89.937,326.468 88.105,320.450 76.910 C 317.055 70.594,317.107 71.901,319.995 65.585 L 322.378 60.373 322.833 53.978 C 323.165 49.330,323.170 47.091,322.855 45.782 C 322.616 44.791,322.127 42.279,321.767 40.199 C 321.407 38.119,320.740 35.701,320.285 34.826 C 318.645 31.667,313.731 24.456,312.555 23.483 C 311.893 22.935,309.850 21.091,308.015 19.384 C 297.472 9.582,276.568 6.662,265.414 13.434 C 264.024 14.278,261.685 15.635,260.218 16.448 L 257.551 17.928 250.268 15.758 C 237.105 11.836,226.884 9.901,207.761 7.710 C 201.646 7.010,181.147 7.135,176.915 7.898 C 175.602 8.135,172.126 8.605,169.191 8.943 C 166.255 9.282,163.211 9.723,162.424 9.925 C 160.891 10.318,156.908 11.136,150.863 12.299 C 146.518 13.134,146.918 13.265,142.271 9.486 C 137.481 5.592,131.096 3.318,123.980 2.973 C 120.915 2.824,118.313 2.802,118.196 2.923 M125.261 5.159 C 131.344 5.662,136.959 7.995,142.333 12.252 C 146.619 15.646,145.732 15.561,155.622 13.530 C 170.869 10.399,178.926 9.551,193.371 9.557 C 204.194 9.561,205.981 9.672,218.905 11.141 C 220.766 11.353,225.333 12.167,229.055 12.950 C 232.776 13.734,236.896 14.562,238.209 14.790 C 240.364 15.164,242.977 15.879,251.225 18.349 C 252.693 18.789,254.394 19.183,255.006 19.226 C 255.619 19.269,256.209 19.397,256.318 19.511 C 257.530 20.772,260.299 20.642,260.299 19.324 C 260.299 19.022,261.418 18.156,262.786 17.399 C 264.154 16.643,266.259 15.484,267.463 14.823 C 268.667 14.163,270.816 13.427,272.239 13.187 C 273.662 12.947,276.169 12.471,277.811 12.128 C 280.184 11.632,281.367 11.587,283.582 11.910 C 285.114 12.134,287.853 12.512,289.668 12.750 C 292.914 13.176,302.364 17.101,304.080 18.736 C 304.408 19.048,306.356 20.826,308.408 22.687 C 310.694 24.759,312.906 27.226,314.118 29.055 C 315.206 30.697,316.271 31.991,316.486 31.930 C 316.700 31.870,316.761 32.006,316.621 32.233 C 316.481 32.459,316.906 33.444,317.565 34.421 C 318.412 35.675,319.000 37.343,319.566 40.089 C 320.889 46.513,321.010 48.041,320.663 54.033 L 320.331 59.774 317.750 65.210 C 314.781 71.466,314.788 71.239,317.442 76.020 C 318.474 77.881,319.888 80.478,320.583 81.791 C 321.277 83.104,322.584 85.522,323.485 87.164 C 324.387 88.806,326.131 92.836,327.359 96.119 C 328.588 99.403,330.189 103.522,330.918 105.274 C 331.646 107.025,332.546 109.532,332.917 110.846 C 333.288 112.159,334.023 114.577,334.550 116.219 C 337.449 125.243,338.480 129.128,339.677 135.522 C 340.251 138.587,340.888 141.900,341.094 142.886 C 341.469 144.677,342.419 150.577,344.492 163.980 C 345.286 169.111,344.624 168.056,354.335 179.666 C 355.817 181.437,357.622 183.602,358.348 184.478 C 359.493 185.859,368.849 199.446,369.950 201.327 C 370.169 201.701,370.730 202.540,371.197 203.192 C 372.716 205.313,383.155 225.548,385.258 230.448 C 386.599 233.572,387.978 236.704,389.025 239.005 C 391.357 244.132,391.984 245.958,392.237 248.358 C 392.387 249.781,392.647 251.588,392.815 252.373 C 393.385 255.040,391.847 262.054,389.986 265.269 C 389.098 266.804,388.345 268.448,388.315 268.922 C 388.284 269.396,388.162 269.754,388.044 269.718 C 387.925 269.682,386.370 270.974,384.588 272.589 C 372.900 283.182,353.592 279.827,346.190 265.918 C 343.996 261.796,343.141 258.123,342.285 249.154 C 342.045 246.637,341.799 244.114,341.739 243.548 C 341.580 242.070,338.619 235.231,338.239 235.466 C 338.063 235.574,338.015 235.414,338.132 235.109 C 338.249 234.805,338.068 234.326,337.730 234.045 C 336.850 233.315,336.109 234.056,335.567 236.206 C 332.728 247.483,328.800 257.390,320.896 273.214 C 303.431 308.180,301.548 315.843,300.894 354.627 C 300.528 376.361,300.371 378.559,298.968 381.692 C 297.527 384.910,293.841 387.488,289.561 388.270 C 288.024 388.551,285.000 389.156,282.842 389.614 C 272.992 391.706,250.197 390.493,236.418 387.144 C 228.289 385.168,225.754 377.297,230.453 368.621 C 233.464 363.062,230.291 355.070,224.072 352.546 C 220.761 351.202,206.035 350.995,202.651 352.244 C 197.063 354.306,194.229 357.987,194.229 363.184 C 194.229 365.916,195.218 369.129,195.925 368.692 C 196.169 368.541,196.223 368.626,196.056 368.897 C 195.898 369.152,196.139 370.787,196.591 372.530 C 198.171 378.626,197.078 383.465,193.459 386.396 C 192.561 387.123,191.948 387.911,192.095 388.149 C 192.242 388.386,192.195 388.478,191.991 388.351 C 191.787 388.225,190.464 388.660,189.052 389.317 C 176.764 395.030,133.180 393.493,127.032 387.130 C 123.537 383.512,122.701 378.600,123.735 367.761 C 124.492 359.825,124.086 347.944,122.743 338.706 C 121.371 329.264,121.187 328.393,120.042 325.925 C 119.496 324.746,118.313 321.990,117.415 319.801 C 114.354 312.345,109.622 303.983,98.837 286.965 C 95.213 281.248,84.589 260.514,83.236 256.517 C 82.791 255.204,81.956 252.965,81.381 251.542 C 80.805 250.119,80.020 248.060,79.636 246.965 C 79.251 245.871,78.296 243.274,77.513 241.194 C 76.730 239.114,75.799 236.249,75.443 234.826 C 75.087 233.403,73.819 228.468,72.624 223.858 C 70.604 216.059,67.716 202.380,66.327 194.030 C 63.932 179.625,64.068 153.380,66.641 133.548 C 68.076 122.491,68.272 121.236,68.881 119.204 C 69.078 118.547,69.701 116.040,70.264 113.632 C 72.404 104.490,72.950 102.465,73.482 101.702 C 73.783 101.271,74.030 100.674,74.030 100.376 C 74.030 99.473,78.380 88.783,80.216 85.174 C 85.701 74.392,88.883 69.192,96.219 59.018 C 97.587 57.121,98.706 55.272,98.706 54.910 C 98.706 53.824,97.485 51.711,97.022 51.998 C 96.771 52.152,96.709 52.076,96.870 51.814 C 97.023 51.568,96.481 50.078,95.667 48.505 C 90.770 39.041,91.730 23.652,97.624 17.150 C 104.745 9.295,108.846 6.591,115.162 5.585 C 120.756 4.694,120.018 4.725,125.261 5.159 M284.677 24.951 C 285.060 25.051,285.687 25.051,286.070 24.951 C 286.453 24.851,286.139 24.769,285.373 24.769 C 284.607 24.769,284.294 24.851,284.677 24.951 M293.333 49.080 C 293.333 49.148,293.915 49.730,294.627 50.373 L 295.920 51.542 294.751 50.249 C 293.662 49.043,293.333 48.772,293.333 49.080 M46.567 82.577 C 47.771 82.950,49.473 83.441,50.348 83.669 C 54.236 84.679,60.800 89.818,63.643 94.077 C 67.060 99.198,67.044 99.168,68.482 102.886 L 69.714 106.070 69.010 109.552 C 68.623 111.468,68.202 113.035,68.075 113.035 C 67.949 113.035,67.833 113.886,67.819 114.925 C 67.804 115.965,67.400 118.249,66.922 120.000 C 66.443 121.751,65.780 125.781,65.448 128.955 C 65.117 132.129,64.678 135.355,64.473 136.122 C 64.134 137.393,64.007 138.754,63.468 146.866 C 62.955 154.599,62.630 169.501,62.896 173.134 C 63.064 175.433,63.085 177.359,62.942 177.414 C 62.798 177.469,62.892 180.245,63.149 183.583 C 63.942 193.860,64.320 193.274,59.502 189.232 C 57.532 187.579,55.114 185.572,54.129 184.772 C 52.237 183.236,50.681 181.693,45.796 176.506 C 44.140 174.748,41.264 171.697,39.403 169.726 C 31.885 161.760,22.440 150.003,18.868 144.163 C 17.356 141.692,15.630 138.916,15.031 137.994 C 14.433 137.073,13.828 136.085,13.687 135.801 C 13.547 135.516,12.559 133.831,11.492 132.056 C 10.425 130.280,9.552 128.586,9.552 128.289 C 9.552 127.993,9.386 127.439,9.183 127.059 C 8.980 126.679,8.713 126.043,8.589 125.646 C 8.465 125.249,8.219 125.014,8.041 125.124 C 7.864 125.234,7.701 124.703,7.679 123.944 C 7.658 123.185,7.454 122.339,7.227 122.065 C 6.713 121.446,5.970 115.699,5.970 112.340 C 5.970 107.885,8.337 100.908,11.381 96.387 C 12.783 94.304,13.930 92.477,13.930 92.327 C 13.930 92.001,19.388 87.424,21.644 85.860 C 22.520 85.251,24.233 84.473,25.450 84.130 C 26.666 83.787,28.468 83.231,29.453 82.894 C 33.471 81.519,42.603 81.350,46.567 82.577 M43.483 90.623 C 43.866 90.723,44.493 90.723,44.876 90.623 C 45.259 90.523,44.945 90.441,44.179 90.441 C 43.413 90.441,43.100 90.523,43.483 90.623 M42.985 160.597 C 43.728 161.363,44.425 161.990,44.534 161.990 C 44.644 161.990,44.126 161.363,43.383 160.597 C 42.640 159.831,41.943 159.204,41.834 159.204 C 41.724 159.204,42.242 159.831,42.985 160.597 M343.575 186.667 C 343.575 187.433,343.657 187.746,343.757 187.363 C 343.857 186.980,343.857 186.353,343.757 185.970 C 343.657 185.587,343.575 185.900,343.575 186.667 M343.204 194.229 C 343.204 195.433,343.278 195.925,343.370 195.323 C 343.461 194.721,343.461 193.736,343.370 193.134 C 343.278 192.532,343.204 193.025,343.204 194.229 M290.640 351.045 C 290.640 351.811,290.722 352.124,290.822 351.741 C 290.922 351.358,290.922 350.731,290.822 350.348 C 290.722 349.965,290.640 350.279,290.640 351.045 M131.038 357.811 C 131.038 358.577,131.120 358.891,131.220 358.507 C 131.320 358.124,131.320 357.498,131.220 357.114 C 131.120 356.731,131.038 357.045,131.038 357.811 M131.452 363.781 C 131.452 364.766,131.529 365.169,131.624 364.677 C 131.719 364.184,131.719 363.378,131.624 362.886 C 131.529 362.393,131.452 362.796,131.452 363.781 M285.553 375.025 L 283.980 376.716 285.672 375.143 C 287.245 373.680,287.546 373.333,287.245 373.333 C 287.180 373.333,286.419 374.095,285.553 375.025 M257.413 381.192 C 259.438 381.264,262.751 381.264,264.776 381.192 C 266.801 381.120,265.144 381.061,261.095 381.061 C 257.045 381.061,255.388 381.120,257.413 381.192" />
        <path id="nose" fill="#040404" fill-rule="evenodd" stroke="none"
            d="M175.323 132.943 C 168.617 135.292,170.531 142.067,178.990 145.922 C 188.202 150.120,201.403 142.214,197.063 135.097 C 195.346 132.281,181.210 130.881,175.323 132.943" />
        <path id="mouse" fill="#0f0f0f" fill-rule="evenodd" stroke="none"
            d="M167.562 159.492 C 167.563 160.443,171.938 163.387,175.808 165.040 C 186.364 169.549,203.476 167.240,209.925 160.437 C 211.383 158.899,211.011 158.882,208.407 160.365 C 198.669 165.913,180.223 166.106,170.448 160.761 C 168.861 159.893,167.562 159.322,167.562 159.492" />

        <path id="eyes" fill="#000000" fill-rule="evenodd" stroke="none"
            d="M136.664 97.163 C 128.095 100.108,114.471 112.925,108.268 123.876 C 94.117 148.859,94.561 170.098,109.350 175.642 C 116.971 178.499,121.040 177.562,131.973 170.436 C 148.072 159.942,158.841 147.275,165.280 131.259 L 168.438 123.404 168.300 118.661 C 167.805 101.633,152.977 91.557,136.664 97.163 M230.538 96.128 C 216.862 97.539,206.987 113.005,209.990 128.310 C 211.064 133.782,217.025 145.109,221.387 149.967 C 223.116 151.892,225.640 154.771,226.995 156.363 C 234.259 164.898,252.135 175.246,261.327 176.237 C 277.653 177.997,289.518 168.536,291.836 151.910 C 293.941 136.812,272.861 108.758,253.853 101.363 C 251.218 100.337,248.150 98.981,247.036 98.348 C 244.995 97.190,237.816 95.557,235.364 95.693 C 234.637 95.733,232.466 95.929,230.538 96.128 M148.585 111.435 C 164.283 114.980,168.330 135.371,155.033 143.926 C 138.454 154.593,119.555 135.693,130.131 119.022 C 133.016 114.474,137.669 111.821,144.745 110.689 C 144.917 110.661,146.646 110.997,148.585 111.435 M245.203 114.826 C 253.980 117.119,259.299 126.607,257.148 136.132 C 252.918 154.865,225.949 154.775,221.993 136.015 C 219.000 121.820,230.788 111.060,245.203 114.826 M139.311 116.716 C 126.957 123.871,128.472 140.030,141.824 143.532 C 152.474 146.326,162.859 134.901,158.442 125.252 C 154.355 116.326,146.237 112.704,139.311 116.716 M232.423 118.196 C 223.056 123.657,221.020 136.229,228.570 141.988 C 230.287 143.297,231.044 143.521,230.487 142.553 C 230.278 142.190,230.318 142.102,230.583 142.345 C 230.834 142.574,231.039 143.023,231.039 143.343 C 231.039 146.363,242.183 145.789,246.741 142.534 C 260.025 133.047,246.471 110.006,232.423 118.196 M146.869 119.188 C 149.643 121.369,149.727 124.092,147.065 125.469 C 143.222 127.456,139.518 124.081,141.665 120.550 C 143.203 118.021,144.841 117.592,146.869 119.188 M241.488 120.690 C 244.261 122.871,244.346 125.593,241.683 126.970 C 237.888 128.933,234.196 125.728,236.072 122.101 C 237.400 119.533,239.366 119.021,241.488 120.690" />
        <path id="path3" fill="#e84a10" fill-rule="evenodd" stroke="none"
            d="M189.229 48.969 C 181.936 49.298,182.794 49.158,171.741 51.815 C 151.093 56.778,134.741 65.363,120.509 78.713 C 114.162 84.666,102.782 97.204,100.082 101.218 C 97.772 104.653,89.960 120.927,88.009 126.368 C 86.831 129.652,85.367 133.502,84.755 134.925 C 84.142 136.350,83.528 138.674,83.387 140.100 C 83.247 141.522,82.851 145.015,82.507 147.861 C 81.684 154.671,82.049 168.468,83.181 173.314 C 85.815 184.598,86.605 187.256,89.394 194.229 C 93.130 203.565,98.299 211.200,107.916 221.584 C 122.212 237.019,142.662 245.666,175.467 250.143 L 186.357 251.630 197.557 251.188 C 203.716 250.946,210.458 250.489,212.537 250.173 C 214.617 249.857,219.184 249.216,222.687 248.750 C 228.943 247.917,242.927 244.174,247.697 242.057 C 266.850 233.555,284.076 218.835,294.439 202.118 C 300.206 192.813,299.383 194.415,303.310 184.836 L 306.557 176.915 308.083 167.761 C 309.322 160.325,309.683 156.889,310.008 149.453 L 310.408 140.299 308.824 130.707 C 307.431 122.272,307.033 120.617,305.518 116.976 C 302.098 108.754,301.349 106.848,301.122 105.792 C 300.994 105.199,300.391 104.424,299.774 104.059 C 299.145 103.688,296.760 100.589,294.320 96.973 C 289.395 89.674,278.414 78.105,272.616 74.106 C 269.225 71.767,262.146 66.659,260.640 65.464 C 257.408 62.899,241.477 56.014,234.297 54.079 C 222.606 50.927,221.141 50.636,211.617 49.572 C 202.292 48.530,200.223 48.474,189.229 48.969 M213.333 53.302 C 230.393 55.323,250.990 62.627,261.294 70.308 C 263.045 71.614,266.716 74.315,269.453 76.310 C 282.980 86.176,295.799 102.539,301.808 117.612 C 303.836 122.697,304.156 123.948,305.481 131.932 L 306.932 140.680 306.487 149.643 C 306.152 156.406,305.695 160.709,304.627 167.164 C 300.042 194.885,279.988 221.421,253.134 235.299 C 240.180 241.995,231.873 244.215,209.552 246.948 C 200.902 248.007,186.423 248.121,179.900 247.182 C 176.726 246.725,172.082 246.079,169.581 245.748 C 153.134 243.566,133.522 236.828,122.845 229.691 C 113.729 223.598,99.862 208.379,95.430 199.602 C 93.073 194.936,89.517 184.739,88.367 179.349 C 87.672 176.090,86.912 172.956,86.679 172.384 C 86.446 171.811,86.034 167.493,85.764 162.786 L 85.272 154.229 86.435 146.126 C 87.989 135.292,91.719 124.682,98.657 111.357 L 103.069 102.886 109.605 95.323 C 125.748 76.647,137.201 68.018,155.456 60.779 C 176.001 52.632,191.156 50.674,213.333 53.302" />
        <path id="path4" fill="#d7e41f" fill-rule="evenodd" stroke="none"
            d="M189.652 58.910 C 174.443 60.182,151.067 68.300,141.775 75.536 C 140.963 76.169,139.134 77.466,137.711 78.418 C 131.876 82.326,125.822 87.038,123.459 89.511 C 114.263 99.135,106.233 109.477,104.641 113.747 C 104.419 114.340,103.686 115.894,103.011 117.200 C 102.337 118.506,101.268 121.005,100.637 122.753 C 100.005 124.501,99.220 126.342,98.892 126.843 C 98.563 127.344,97.647 129.591,96.856 131.837 C 96.064 134.083,95.260 136.119,95.070 136.361 C 94.662 136.879,93.270 141.968,92.514 145.701 C 91.501 150.704,91.055 161.014,91.696 164.577 C 92.012 166.328,92.375 168.746,92.504 169.950 C 92.733 172.090,94.756 179.715,95.725 182.090 C 95.993 182.746,96.530 184.269,96.918 185.473 C 98.063 189.026,99.179 191.840,99.530 192.057 C 99.996 192.345,102.237 195.702,103.335 197.757 C 105.882 202.521,109.470 206.259,117.468 212.482 C 125.600 218.809,143.782 226.776,157.015 229.810 C 171.807 233.203,192.958 234.994,204.179 233.804 C 215.752 232.578,222.099 231.609,225.933 230.483 C 228.088 229.851,230.478 229.207,231.244 229.053 C 254.104 224.449,283.069 199.583,290.794 177.930 C 291.696 175.402,292.994 171.900,293.678 170.149 C 295.847 164.596,296.831 159.852,297.866 149.951 C 298.647 142.479,297.821 129.222,296.110 121.791 C 295.682 119.930,294.876 116.438,294.318 114.030 C 293.043 108.520,291.874 106.280,286.637 99.321 C 282.694 94.082,274.564 85.174,273.725 85.174 C 273.518 85.174,271.979 84.134,270.306 82.864 C 267.279 80.565,257.648 74.030,257.288 74.030 C 257.184 74.030,256.431 73.610,255.614 73.097 C 248.525 68.644,239.742 64.778,232.475 62.911 C 229.808 62.226,226.693 61.294,225.554 60.839 C 221.383 59.176,200.132 58.034,189.652 58.910 M213.340 62.706 C 220.131 63.275,222.958 63.785,228.259 65.401 C 229.353 65.735,232.129 66.529,234.428 67.166 C 239.975 68.704,253.591 75.536,259.701 79.848 C 262.109 81.547,265.154 83.660,266.468 84.544 C 270.398 87.188,281.442 98.663,284.694 103.483 C 285.802 105.124,287.421 107.439,288.293 108.627 C 289.308 110.008,290.054 111.585,290.366 113.005 C 290.633 114.225,291.339 117.373,291.934 120.000 C 293.947 128.891,294.133 130.335,294.390 139.104 C 294.597 146.173,294.518 148.781,293.983 152.637 C 293.619 155.264,293.131 158.824,292.900 160.548 C 292.670 162.273,292.321 163.974,292.126 164.329 C 291.809 164.906,289.206 171.980,287.349 177.313 C 286.727 179.098,280.937 189.227,278.428 192.920 C 277.561 194.196,271.676 200.668,267.295 205.165 C 266.437 206.046,264.870 207.393,263.813 208.159 C 247.355 220.086,241.982 222.889,229.054 226.288 C 220.332 228.581,220.769 228.512,204.975 230.099 C 198.234 230.776,180.602 230.311,174.129 229.286 C 169.215 228.507,157.760 226.424,156.418 226.065 C 152.891 225.122,137.248 219.710,135.494 218.826 C 129.780 215.947,122.377 211.988,121.969 211.594 C 121.713 211.347,120.897 210.663,120.155 210.075 C 112.671 204.146,107.162 198.529,107.085 196.750 C 107.074 196.494,106.926 196.226,106.756 196.153 C 104.607 195.229,98.187 180.664,96.698 173.333 C 93.998 160.042,94.712 145.523,98.498 136.716 C 98.781 136.060,99.872 133.015,100.924 129.950 C 101.976 126.886,103.358 123.489,103.995 122.403 C 104.632 121.317,106.284 118.182,107.666 115.438 C 110.010 110.782,111.301 108.788,114.518 104.854 C 115.224 103.990,117.343 101.403,119.227 99.104 C 121.111 96.806,123.839 93.870,125.290 92.580 C 126.740 91.290,128.382 89.815,128.939 89.302 C 134.311 84.347,135.512 83.303,136.441 82.773 C 137.590 82.119,139.886 80.673,143.085 78.592 C 144.179 77.880,145.701 76.959,146.468 76.546 C 147.234 76.133,148.621 75.306,149.550 74.710 C 151.056 73.742,156.153 71.244,156.620 71.244 C 156.836 71.244,163.139 68.291,165.255 67.199 C 166.544 66.533,171.766 65.264,178.109 64.073 C 179.204 63.868,180.816 63.498,181.692 63.252 C 185.663 62.136,202.969 61.837,213.340 62.706" />
       <path id="path4" fill="#11F02C" fill-rule="evenodd" stroke="none"
            d="M189.851 53.395 C 184.020 53.677,178.514 54.509,174.129 55.769 C 163.144 58.927,151.222 63.821,142.634 68.698 C 139.598 70.422,136.419 72.193,135.568 72.633 C 129.281 75.886,113.116 91.789,107.414 100.332 C 95.599 118.033,93.745 121.996,88.763 140.199 C 87.691 144.116,85.956 157.475,86.200 159.930 C 87.557 173.566,87.743 174.533,90.747 183.561 C 97.277 203.182,112.095 220.915,129.182 229.558 C 150.963 240.574,188.207 245.398,217.313 240.973 C 230.834 238.917,239.126 236.066,256.041 227.658 C 257.311 227.027,259.436 225.650,260.763 224.598 C 262.090 223.547,264.722 221.456,266.612 219.952 C 275.839 212.613,284.277 202.618,292.049 189.823 C 293.560 187.335,297.592 176.656,298.501 172.736 C 298.983 170.657,299.708 167.970,300.112 166.766 C 304.835 152.688,304.403 136.849,298.725 115.935 C 296.293 106.977,291.540 99.256,282.312 89.273 C 281.259 88.134,279.144 85.834,277.612 84.162 C 275.116 81.438,268.747 76.278,263.880 73.036 C 262.895 72.380,262.000 71.741,261.891 71.617 C 260.764 70.335,249.689 64.589,242.388 61.498 C 239.950 60.466,227.592 56.520,223.881 55.588 C 221.412 54.969,214.419 54.102,205.771 53.344 C 200.788 52.908,199.843 52.911,189.851 53.395 M213.134 57.521 C 229.141 59.660,247.240 66.126,258.407 73.696 C 271.921 82.856,284.271 95.255,290.853 106.269 C 298.367 118.842,302.331 146.071,298.733 160.398 C 294.469 177.379,290.939 186.056,284.074 196.434 C 279.111 203.938,277.940 205.387,273.374 209.679 C 263.507 218.954,253.715 225.930,245.970 229.203 C 234.435 234.079,228.264 235.949,219.368 237.265 C 216.377 237.708,212.945 238.240,211.741 238.447 C 207.983 239.093,185.384 239.364,179.455 238.833 C 164.670 237.511,158.526 236.340,143.284 231.941 C 131.748 228.611,118.208 219.830,109.591 210.090 C 107.005 207.167,104.439 204.269,103.888 203.648 C 102.525 202.114,97.968 193.580,96.096 189.055 C 90.363 175.200,88.233 161.757,90.137 151.443 C 90.461 149.692,91.002 146.398,91.341 144.125 C 92.157 138.649,95.849 127.496,99.099 120.685 C 110.646 96.486,130.267 76.566,151.329 67.658 C 154.018 66.521,158.010 64.822,160.199 63.884 C 165.574 61.581,169.866 60.329,181.294 57.734 C 186.991 56.441,204.186 56.326,213.134 57.521" />
        <path id="path5" fill="#17f1f1" fill-rule="evenodd" stroke="none"
            d="M184.535 39.444 C 170.486 40.664,158.974 44.075,141.071 52.325 C 137.070 54.169,123.407 63.451,119.403 67.046 C 117.542 68.717,114.498 71.409,112.637 73.030 C 106.565 78.320,96.178 90.183,93.194 95.236 C 86.925 105.853,85.538 108.442,83.874 112.637 C 79.494 123.680,78.408 126.526,78.408 126.962 C 78.408 127.217,77.510 131.081,76.412 135.548 C 74.446 143.543,74.200 145.244,73.201 157.731 C 72.122 171.223,75.039 188.455,80.493 200.796 C 84.839 210.633,86.014 212.853,90.286 219.303 C 102.737 238.104,120.407 251.136,143.881 258.831 C 155.372 262.597,167.671 264.473,183.563 264.882 C 230.084 266.080,266.443 254.553,290.078 231.115 C 298.223 223.038,306.167 212.385,310.016 204.378 C 315.670 192.618,316.364 190.881,317.805 184.876 C 318.592 181.592,319.600 177.505,320.043 175.794 C 320.753 173.054,321.407 166.953,322.205 155.622 C 322.712 148.423,320.515 134.972,317.200 124.975 C 314.538 116.948,313.707 115.016,309.081 106.099 C 308.081 104.172,307.262 102.303,307.260 101.945 C 307.256 101.354,304.156 96.501,298.034 87.507 C 293.689 81.124,275.497 64.491,266.667 58.827 C 249.801 48.011,225.480 39.978,207.363 39.242 C 203.970 39.104,199.493 38.916,197.413 38.823 C 195.333 38.731,189.538 39.010,184.535 39.444 M206.567 42.801 C 212.961 43.045,214.721 43.304,225.582 45.609 C 231.592 46.884,234.811 47.937,247.363 52.733 C 251.464 54.300,265.797 62.370,268.798 64.801 C 270.362 66.069,273.895 68.929,276.649 71.157 C 287.250 79.734,298.094 92.323,301.753 100.299 C 302.305 101.502,303.592 103.826,304.612 105.462 C 305.633 107.098,306.468 108.669,306.468 108.952 C 306.468 109.563,308.257 113.074,309.539 114.979 C 310.037 115.720,311.158 118.496,312.029 121.148 C 312.899 123.800,314.308 128.030,315.158 130.547 C 316.008 133.065,316.817 136.109,316.955 137.313 C 317.093 138.517,317.577 142.547,318.031 146.269 C 319.105 155.073,318.282 167.974,316.076 176.915 C 315.428 179.542,314.432 183.625,313.862 185.987 C 313.095 189.170,312.041 191.902,309.795 196.534 C 308.127 199.973,306.435 203.546,306.034 204.474 C 300.104 218.201,276.648 240.798,262.104 246.794 C 260.126 247.610,256.716 249.027,254.527 249.944 C 223.513 262.932,175.085 265.357,144.876 255.434 C 137.143 252.894,123.576 246.576,119.801 243.756 C 118.816 243.021,115.836 240.845,113.179 238.921 C 103.887 232.192,91.628 217.112,87.123 206.869 C 86.232 204.842,85.048 202.199,84.494 200.995 C 81.986 195.552,81.792 194.958,78.361 182.160 C 77.961 180.667,77.535 177.533,77.415 175.195 C 77.295 172.858,76.994 169.481,76.748 167.691 C 76.382 165.037,76.420 163.386,76.956 158.736 C 77.317 155.600,77.696 151.065,77.799 148.657 C 77.947 145.153,78.384 142.673,79.987 136.237 C 81.089 131.815,81.990 127.978,81.990 127.712 C 81.990 127.446,82.962 124.796,84.150 121.823 C 85.337 118.850,86.852 114.927,87.516 113.104 C 88.615 110.085,90.472 106.704,96.592 96.572 C 99.348 92.009,109.383 80.784,115.872 75.005 C 118.564 72.608,121.668 69.821,122.771 68.812 C 123.874 67.803,126.388 65.901,128.358 64.585 C 130.328 63.270,133.910 60.885,136.318 59.285 C 138.726 57.686,142.398 55.625,144.478 54.707 C 146.557 53.788,150.362 52.116,152.934 50.991 C 158.484 48.563,173.516 44.215,178.109 43.710 C 186.573 42.779,193.950 42.272,197.015 42.412 C 198.876 42.497,203.174 42.672,206.567 42.801" />
        <path id="path6" fill="#8c78b9" fill-rule="evenodd" stroke="none"
            d="M191.443 43.110 C 191.333 43.222,187.207 43.777,182.274 44.345 L 173.304 45.377 163.965 48.501 C 155.544 51.318,142.058 56.784,137.898 59.066 C 125.363 65.943,101.204 89.777,94.520 101.860 C 87.963 113.715,87.100 115.568,84.351 123.702 C 77.431 144.178,75.582 162.506,78.743 179.303 C 80.372 187.964,80.051 186.965,85.276 199.602 C 92.631 217.389,112.702 237.842,129.616 244.785 C 132.865 246.118,136.507 247.631,137.711 248.146 C 143.130 250.465,158.220 254.565,163.980 255.282 C 193.389 258.947,199.312 259.004,225.473 255.878 C 235.935 254.628,237.551 254.208,251.413 249.144 C 261.458 245.475,273.862 237.705,284.378 228.497 C 297.688 216.842,311.744 191.411,314.426 174.129 C 314.868 171.284,315.490 167.522,315.810 165.771 C 316.219 163.523,316.394 159.522,316.404 152.163 L 316.418 141.738 314.670 133.655 C 312.844 125.211,310.270 117.007,308.697 114.622 C 308.190 113.853,307.638 112.778,307.471 112.234 C 307.303 111.689,307.032 111.065,306.869 110.846 C 306.705 110.627,306.342 109.731,306.061 108.856 C 305.780 107.980,305.147 106.726,304.653 106.070 C 304.159 105.413,302.910 103.264,301.877 101.294 C 300.844 99.323,299.887 97.622,299.750 97.512 C 299.475 97.293,298.389 95.665,295.502 91.144 C 294.197 89.102,291.261 85.834,286.201 80.794 C 271.276 65.929,258.681 57.721,239.801 50.556 L 230.647 47.081 220.697 45.461 C 212.996 44.206,209.171 43.786,203.781 43.600 C 199.950 43.469,195.652 43.259,194.229 43.134 C 192.806 43.010,191.552 42.999,191.443 43.110 M212.935 47.986 C 228.891 50.191,228.048 49.972,244.115 56.074 C 245.831 56.726,249.950 58.755,253.269 60.583 C 256.588 62.410,260.164 64.348,261.216 64.888 C 262.269 65.429,264.866 67.249,266.988 68.934 C 269.110 70.619,271.785 72.742,272.933 73.653 C 274.080 74.564,274.903 75.497,274.762 75.726 C 274.606 75.978,274.697 76.023,274.994 75.840 C 275.278 75.665,275.793 75.848,276.219 76.276 C 276.623 76.682,280.034 80.060,283.800 83.781 C 289.989 89.897,299.303 101.841,299.303 103.661 C 299.303 103.950,299.880 104.697,301.245 106.176 C 301.765 106.740,302.599 108.380,303.098 109.820 C 303.597 111.260,304.466 113.647,305.031 115.124 C 305.595 116.602,305.957 117.811,305.836 117.811 C 305.714 117.811,305.896 118.092,306.240 118.436 C 306.584 118.780,306.978 119.765,307.115 120.625 C 307.253 121.485,307.526 122.189,307.722 122.189 C 308.337 122.189,308.862 124.099,310.878 133.667 L 312.836 142.957 312.830 151.976 C 312.802 197.615,286.395 233.599,241.990 248.509 C 224.363 254.427,200.222 255.707,170.547 252.296 C 159.908 251.072,159.246 250.955,153.831 249.335 C 152.080 248.811,148.587 247.766,146.070 247.013 C 137.887 244.566,126.149 239.557,122.883 237.119 C 121.297 235.935,117.940 233.434,115.423 231.559 C 110.877 228.175,99.754 217.377,98.698 215.323 C 98.416 214.776,96.506 211.770,94.453 208.644 C 90.265 202.264,90.572 202.867,86.778 193.565 C 83.968 186.674,83.603 185.273,81.382 172.883 C 80.301 166.853,80.710 151.937,82.100 146.667 C 82.678 144.478,83.615 140.537,84.183 137.910 C 84.751 135.284,85.654 131.791,86.189 130.149 C 86.724 128.507,87.887 124.925,88.773 122.189 C 89.834 118.912,91.351 115.447,93.214 112.040 C 94.770 109.194,96.763 105.522,97.641 103.881 C 104.156 91.710,130.934 65.954,142.090 61.128 C 143.512 60.513,147.363 58.846,150.647 57.424 C 160.893 52.987,173.473 49.110,180.100 48.348 C 183.164 47.995,186.657 47.550,187.861 47.358 C 190.939 46.868,207.922 47.293,212.935 47.986" />
        <path id="path7" fill="#217576" fill-rule="evenodd" stroke="none"
            d="M174.999 305.830 C 168.167 308.358,169.639 319.503,176.816 319.593 C 178.122 319.610,177.516 318.994,175.533 318.290 C 170.068 316.349,169.728 309.124,174.992 306.795 C 181.716 303.821,186.866 312.253,181.406 317.294 C 179.501 319.052,179.567 319.618,181.523 318.300 C 188.324 313.716,182.706 302.978,174.999 305.830 M189.781 306.171 C 187.952 307.289,186.732 308.826,186.414 310.415 C 186.044 312.267,187.099 311.959,188.060 309.936 C 190.090 305.661,195.859 305.261,198.500 309.213 C 199.759 311.099,199.654 312.112,198.125 312.836 C 192.714 315.398,193.214 324.125,198.879 325.994 C 203.035 327.366,208.583 324.160,208.084 320.674 C 207.985 319.980,207.762 320.197,206.955 321.768 C 205.097 325.392,201.381 326.461,197.971 324.354 C 195.977 323.121,194.350 319.475,195.755 319.386 C 197.513 319.276,200.597 315.652,200.597 313.696 C 200.597 312.731,200.957 312.664,203.045 313.244 C 204.573 313.668,207.363 316.363,207.363 317.414 C 207.363 317.742,207.542 318.010,207.761 318.010 C 210.497 318.010,205.470 312.469,202.536 312.250 C 200.932 312.130,200.826 312.043,200.353 310.441 C 199.033 305.970,193.661 303.801,189.781 306.171 M199.401 313.731 C 199.399 314.612,197.925 316.680,196.656 317.584 C 194.449 319.156,195.223 316.354,197.553 314.339 C 198.941 313.139,199.404 312.986,199.401 313.731 M186.442 314.667 C 187.054 317.105,189.775 319.426,192.312 319.672 C 194.285 319.865,194.065 318.733,192.048 318.314 C 190.273 317.945,188.555 316.501,187.841 314.779 C 187.223 313.286,186.072 313.194,186.442 314.667" />
        <path id="path8" fill="#eb435c" fill-rule="evenodd" stroke="none"
            d="M206.579 305.904 C 204.131 306.966,201.578 310.394,202.528 311.344 C 202.800 311.616,203.138 311.249,203.570 310.216 C 206.188 303.951,215.323 305.582,215.323 312.315 C 215.323 319.036,206.807 321.154,203.764 315.190 C 202.903 313.502,201.961 313.044,202.401 314.527 C 203.955 319.775,211.505 321.273,214.865 317.001 C 219.404 311.231,213.262 303.005,206.579 305.904" />
        <path id="path9" fill="#f5b72e" fill-rule="evenodd" stroke="none"
            d="M185.302 312.392 C 185.182 312.585,185.873 312.942,186.837 313.185 C 188.768 313.671,190.906 315.526,191.287 317.046 C 191.420 317.576,191.781 318.010,192.088 318.010 C 192.762 318.010,191.874 315.574,190.731 314.287 C 189.419 312.809,185.820 311.553,185.302 312.392 M181.038 313.618 C 175.075 318.534,179.588 327.635,187.274 326.194 C 189.020 325.866,192.019 323.051,192.325 321.454 C 192.661 319.696,191.975 319.869,191.053 321.775 C 188.302 327.456,180.255 326.141,179.233 319.843 C 178.948 318.087,180.225 315.324,181.889 314.094 C 183.017 313.260,183.458 312.438,182.777 312.438 C 182.608 312.438,181.826 312.969,181.038 313.618" />
    </g>
</svg>